# xmcd
#
# Track frame offsets: 
#        150
#        11739
#        24290
#        38361
#        49799
#        63189
#        77299
#        90042
#        103608
#        117380
#        131053
#        144795
#        156681
#        170870
#        185289
#        200104
#        209785
#        221775
#        233041
#        244747
#        259729
#        271589
#
# Disc length: 3762 seconds
#
# Revision: 2
# Processed by: cddbd v1.5.2PL0 Copyright (c) Steve Scherf et al.
# Submitted via: ExactAudioCopy v1.0b3
#
DISCID=2e0eb016
DTITLE=Django Reinhardt - Swing From Paris
DYEAR=2001
DGENRE=Swing
TTITLE0=Swing From Paris
TTITLE1=Lambeth Walk
TTITLE2=Echoes Of Spain
TTITLE3=Undecided
TTITLE4=H. C Q. Strut
TTITLE5=Swing 41
TTITLE6=Blues En Mineur 
TTITLE7=Studio 24
TTITLE8=Blues En Clair 
TTITLE9=Improvisation
TTITLE10=Coquette
TTITLE11=Django's Tiger
TTITLE12=Embrace You
TTITLE13=Love Melody
TTITLE14=Nuages
TTITLE15=What Is That Called Love
TTITLE16=Ol' Man River 
TTITLE17=R-Vingt Six
TTITLE18=How High The Moon
TTITLE19=Lover Man
TTITLE20=Blues 
TTITLE21=Blue Lou
EXTD=
EXTT0=
EXTT1=
EXTT2=
EXTT3=
EXTT4=
EXTT5=
EXTT6=
EXTT7=
EXTT8=
EXTT9=
EXTT10=
EXTT11=
EXTT12=
EXTT13=
EXTT14=
EXTT15=
EXTT16=
EXTT17=
EXTT18=
EXTT19=
EXTT20=
EXTT21=
PLAYORDER=
